<svg width="33" height="33" viewBox="0 0 33 33" fill="none" xmlns="http://www.w3.org/2000/svg">
<path d="M32.0265 27.582C32.0265 28.6028 31.7238 29.6008 31.1566 30.4496C30.5894 31.2984 29.7832 31.96 28.84 32.3506C27.8968 32.7413 26.8589 32.8435 25.8576 32.6444C24.8563 32.4452 23.9365 31.9536 23.2146 31.2318C22.4927 30.5099 22.0011 29.5902 21.8019 28.5889C21.6027 27.5877 21.7049 26.5499 22.0956 25.6067C22.4863 24.6636 23.1479 23.8575 23.9968 23.2903C24.8457 22.7231 25.8437 22.4204 26.8646 22.4204C28.2336 22.4204 29.5466 22.9642 30.5146 23.9322C31.4827 24.9002 32.0265 26.213 32.0265 27.582Z" fill="#A8AD00"/>
<path d="M32.0265 5.74463C32.0265 6.68696 31.7471 7.60813 31.2235 8.39165C30.6999 9.17517 29.9558 9.78585 29.0851 10.1465C28.2144 10.5071 27.2564 10.6014 26.3321 10.4176C25.4078 10.2338 24.5588 9.77998 23.8924 9.11365C23.226 8.44732 22.7722 7.59836 22.5884 6.67414C22.4045 5.74991 22.4989 4.79192 22.8595 3.92132C23.2202 3.05072 23.8309 2.3066 24.6145 1.78307C25.398 1.25954 26.3193 0.980103 27.2617 0.980103C28.5254 0.980103 29.7373 1.48208 30.6309 2.3756C31.5245 3.26912 32.0265 4.481 32.0265 5.74463Z" fill="#A8AD00"/>
<path d="M9.79062 5.74463C9.79062 6.68696 9.51116 7.60813 8.98759 8.39165C8.46403 9.17517 7.71986 9.78585 6.8492 10.1465C5.97854 10.5071 5.02049 10.6014 4.0962 10.4176C3.17191 10.2338 2.32289 9.77998 1.65652 9.11365C0.990142 8.44732 0.536335 7.59836 0.352483 6.67414C0.16863 5.74991 0.26299 4.79192 0.62363 3.92132C0.984269 3.05072 1.59499 2.3066 2.37857 1.78307C3.16214 1.25954 4.08337 0.980103 5.02577 0.980103C6.28949 0.980103 7.50144 1.48208 8.39502 2.3756C9.28861 3.26912 9.79062 4.481 9.79062 5.74463Z" fill="#A8AD00"/>
<path opacity="0.4" d="M4.7558 10.5409C5.50692 12.6974 6.91034 14.5668 8.77152 15.89C10.6327 17.2132 12.8595 17.9248 15.1432 17.9259H15.1908L20.7974 17.91C21.9821 17.9027 23.1362 18.2862 24.0809 19.0012C25.0255 19.7161 25.7081 20.7225 26.0229 21.8646V24.8027C26.0229 25.1228 26.1501 25.4298 26.3764 25.6562C26.6028 25.8825 26.9098 26.0097 27.23 26.0097C27.5501 26.0097 27.8571 25.8825 28.0835 25.6562C28.3099 25.4298 28.4371 25.1228 28.4371 24.8027V6.98338C28.4371 6.66326 28.3099 6.35625 28.0835 6.12989C27.8571 5.90353 27.5501 5.77637 27.23 5.77637C26.9098 5.77637 26.6028 5.90353 26.3764 6.12989C26.1501 6.35625 26.0229 6.66326 26.0229 6.98338V17.4971C24.5902 16.2143 22.7364 15.5022 20.8133 15.496H20.7816L15.1702 15.5119H15.1384C13.3605 15.5125 11.6265 14.9591 10.1777 13.9287C8.72881 12.8984 7.637 11.4422 7.05404 9.76268C6.97188 9.52612 6.81807 9.32101 6.61399 9.17586C6.40991 9.03071 6.16568 8.95271 5.91524 8.95272C5.78019 8.95051 5.64579 8.97201 5.51817 9.01624C5.36536 9.06233 5.22357 9.13914 5.1015 9.24197C4.97942 9.34479 4.87964 9.47146 4.80826 9.61421C4.73688 9.75697 4.6954 9.91279 4.68638 10.0721C4.67736 10.2315 4.70098 10.391 4.7558 10.5409Z" fill="#A8AD00"/>
</svg>
